<?xml version="1.0" standalone="no"?>
<!DOCTYPE svg PUBLIC "-//W3C//DTD SVG 20010904//EN"
 "http://www.w3.org/TR/2001/REC-SVG-20010904/DTD/svg10.dtd">
<svg version="1.0" xmlns="http://www.w3.org/2000/svg"
 width="16.000000pt" height="16.000000pt" viewBox="0 0 16.000000 16.000000"
 preserveAspectRatio="xMidYMid meet">
<metadata>
Created by potrace 1.11, written by Peter Selinger 2001-2013
</metadata>
<g transform="translate(0.000000,16.000000) scale(0.001333,-0.001333)"
fill="#000000" stroke="none">
<path d="M4475 11725 c-27 -8 -98 -34 -156 -59 -59 -25 -185 -71 -280 -102
-175 -56 -475 -160 -625 -214 -44 -17 -84 -30 -88 -30 -4 0 -22 -6 -39 -14
-18 -8 -99 -37 -182 -66 -172 -60 -237 -91 -352 -165 -222 -145 -320 -316
-519 -910 -66 -197 -93 -299 -110 -404 -7 -39 -10 -59 -24 -126 -6 -27 -12
-63 -14 -80 -2 -16 -16 -102 -31 -190 -14 -88 -28 -176 -31 -195 -2 -19 -6
-46 -9 -60 -3 -14 -7 -43 -11 -65 -3 -22 -7 -51 -10 -65 -4 -23 -24 -152 -39
-255 -11 -69 -15 -98 -25 -155 -5 -30 -12 -75 -15 -100 -3 -25 -8 -56 -10 -70
-20 -123 -27 -171 -31 -205 -3 -22 -7 -51 -10 -65 -9 -54 -23 -147 -29 -190
-3 -25 -10 -70 -15 -100 -12 -71 -20 -126 -26 -170 -2 -19 -9 -60 -14 -90 -5
-30 -12 -75 -15 -100 -3 -25 -8 -56 -10 -70 -2 -14 -13 -86 -24 -160 -11 -74
-23 -153 -26 -175 -4 -22 -8 -53 -11 -70 -2 -16 -7 -41 -9 -55 -3 -14 -7 -42
-10 -62 -10 -73 -15 -112 -36 -242 -11 -72 -22 -142 -24 -156 -2 -14 -7 -45
-11 -70 -4 -25 -8 -52 -9 -60 -1 -8 -5 -35 -9 -60 -4 -25 -10 -58 -12 -75 -3
-16 -9 -55 -14 -85 -5 -30 -13 -80 -16 -110 -3 -30 -8 -58 -10 -61 -2 -4 -6
-28 -9 -55 -4 -27 -10 -67 -15 -89 -5 -22 -12 -62 -16 -90 -3 -27 -8 -52 -9
-55 -2 -3 -6 -25 -10 -49 -3 -24 -33 -149 -65 -276 -33 -128 -61 -243 -64
-256 -3 -13 -19 -85 -36 -159 -26 -116 -90 -421 -104 -500 -2 -14 -11 -63 -20
-110 -8 -47 -18 -101 -21 -120 -3 -19 -8 -46 -10 -60 -11 -66 -34 -220 -40
-265 -3 -27 -8 -63 -10 -80 -28 -193 -38 -518 -22 -655 18 -149 70 -342 139
-515 63 -158 115 -266 280 -585 47 -91 95 -192 107 -224 45 -123 66 -268 86
-616 16 -271 18 -295 36 -364 6 -21 21 -49 33 -61 117 -117 577 -170 1031
-121 17 2 73 11 125 21 119 21 247 21 420 0 74 -9 146 -18 160 -20 25 -3 208
-34 245 -41 11 -3 36 -7 55 -10 19 -2 55 -9 80 -15 60 -13 304 -58 349 -65 20
-3 50 -9 66 -14 27 -7 57 -13 135 -26 14 -2 45 -9 70 -14 37 -8 262 -51 345
-66 101 -18 220 -38 320 -55 168 -28 165 -27 215 -34 25 -3 88 -12 140 -20 52
-7 129 -17 170 -20 41 -4 83 -9 92 -10 48 -10 264 -19 418 -19 176 0 277 6
440 29 19 3 52 7 72 9 21 3 53 7 70 10 18 3 51 8 73 11 38 5 87 13 130 22 11
2 36 6 55 9 19 3 109 18 200 35 91 16 181 32 200 35 19 3 43 7 52 10 10 3 30
7 45 10 16 2 143 27 283 55 140 28 266 53 280 56 14 2 77 15 140 28 63 13 126
26 140 29 48 9 225 46 290 61 61 14 366 78 420 89 14 2 100 21 192 40 91 19
177 37 190 40 18 3 206 43 343 72 11 2 29 6 40 8 11 2 54 11 95 19 41 9 86 18
100 21 14 2 84 16 155 30 181 35 180 35 280 52 83 15 216 15 270 1 43 -11 111
-39 143 -57 18 -11 35 -20 37 -20 2 0 3 1022 2 2271 l-2 2271 -215 70 c-434
139 -657 179 -865 153 -38 -5 -72 -9 -75 -10 -3 -1 -25 -5 -50 -9 -148 -27
-380 -130 -516 -230 -23 -17 -55 -40 -70 -51 -48 -33 -237 -226 -290 -295 -28
-36 -67 -91 -87 -124 l-36 -59 72 -34 c159 -76 345 -221 434 -338 70 -93 129
-231 152 -361 6 -33 14 -70 17 -84 7 -33 12 -344 6 -392 -4 -36 -22 -54 -22
-23 0 8 -4 23 -9 33 -5 9 -21 46 -36 82 -158 375 -375 663 -605 805 -402 248
-864 348 -1600 349 -179 0 -393 -9 -451 -19 -13 -2 -51 -7 -84 -10 -231 -23
-631 -120 -782 -190 -17 -8 -35 -15 -40 -15 -19 0 -248 -122 -331 -176 -82
-54 -186 -130 -224 -164 -9 -8 -41 -35 -72 -60 -89 -73 -344 -335 -447 -460
-188 -227 -349 -455 -465 -652 -21 -37 -42 -68 -46 -68 -5 0 -9 19 -9 43 -1
23 -2 76 -3 117 -3 96 16 225 39 270 10 19 31 55 48 80 33 48 248 342 257 350
3 3 41 50 85 105 43 55 124 154 178 219 l99 120 -6 80 c-4 45 -9 97 -11 116
-3 19 -9 76 -15 125 -12 98 -18 144 -25 190 -4 27 -9 57 -20 140 -3 17 -7 41
-10 55 -2 13 -7 42 -10 65 -3 22 -8 47 -10 55 -2 8 -7 30 -10 48 -14 81 -66
266 -94 333 -21 49 -85 149 -189 294 -206 288 -250 352 -366 525 -53 80 -100
150 -104 155 -11 15 -96 153 -126 205 -61 104 -138 265 -162 338 -24 73 -25
84 -19 222 3 80 8 165 10 190 2 25 6 88 10 140 3 52 7 122 10 155 7 90 14 187
20 320 4 66 8 140 10 165 8 94 18 411 19 560 0 312 -22 449 -77 466 -71 23
-331 206 -390 276 -73 85 -77 163 -12 212 31 24 103 56 125 56 5 0 43 -48 86
-107 217 -299 382 -490 445 -517 51 -21 109 -11 394 70 104 30 208 56 230 57
37 3 176 -16 193 -26 4 -3 27 -8 53 -11 25 -3 85 -15 135 -25 125 -27 157 -32
256 -37 100 -5 123 2 164 46 37 40 175 145 224 170 51 26 60 64 52 211 -1 14
-13 43 -27 63 -14 20 -25 44 -25 52 0 28 48 109 144 244 247 346 260 374 223
463 -50 119 -244 312 -562 558 -107 83 -384 290 -455 339 -19 14 -42 30 -50
37 -72 60 -185 138 -230 160 -64 30 -142 37 -215 18z m-1599 -5692 c2 -88 30
-231 57 -291 6 -15 22 -43 35 -64 40 -61 29 -159 -43 -388 -13 -41 -37 -131
-54 -200 -54 -224 -61 -281 -56 -520 2 -113 6 -216 8 -230 3 -14 8 -50 11 -80
11 -116 40 -305 82 -535 34 -187 37 -201 48 -255 21 -97 27 -132 24 -136 -7
-6 -102 191 -148 305 -86 216 -161 496 -186 691 -3 25 -7 56 -10 70 -24 136
-24 621 0 770 2 14 7 43 10 65 14 104 18 125 32 200 16 82 68 297 85 350 34
108 94 275 98 275 3 0 6 -12 7 -27z m2525 -3027 c32 -13 152 -56 284 -101 100
-34 417 -126 483 -140 12 -3 32 -7 45 -10 87 -20 330 -63 397 -70 181 -21 395
-11 560 25 25 5 56 12 70 14 24 4 148 29 200 40 140 30 211 47 440 102 146 36
323 81 393 100 71 19 131 33 134 31 8 -9 -152 -170 -242 -242 -254 -204 -578
-363 -860 -421 -320 -66 -605 -64 -880 6 -391 99 -772 329 -1068 647 -46 49
-47 52 -20 44 15 -5 44 -16 64 -25z"/>
</g>
</svg>
