<?xml version="1.0" standalone="no"?>
<!DOCTYPE svg PUBLIC "-//W3C//DTD SVG 20010904//EN"
 "http://www.w3.org/TR/2001/REC-SVG-20010904/DTD/svg10.dtd">
<svg version="1.0" xmlns="http://www.w3.org/2000/svg"
 width="260.000000pt" height="260.000000pt" viewBox="0 0 260.000000 260.000000"
 preserveAspectRatio="xMidYMid meet">
<metadata>
Created by potrace 1.11, written by Peter Selinger 2001-2013
</metadata>
<g transform="translate(0.000000,260.000000) scale(0.100000,-0.100000)"
fill="#000000" stroke="none">
<path d="M150 1951 l0 -149 1155 0 1155 0 0 149 0 149 -1155 0 -1155 0 0 -149z"/>
<path d="M153 1435 c-2 -6 -2 -74 -1 -150 l3 -140 1150 0 1150 0 0 150 0 150
-1149 0 c-792 0 -1150 -3 -1153 -10z"/>
<path d="M150 640 l0 -150 1155 0 1155 0 0 150 0 150 -1155 0 -1155 0 0 -150z"/>
</g>
</svg>
